<?xml version="1.0" standalone="no"?><!-- Generator: Gravit.io --><svg xmlns="http://www.w3.org/2000/svg" xmlns:xlink="http://www.w3.org/1999/xlink" style="isolation:isolate" viewBox="0 0 450 450" width="450" height="450"><defs><clipPath id="_clipPath_Vx9ltL0dkikMUNZOsSTYTBrMT7U6vfnQ"><rect width="450" height="450"/></clipPath></defs><g clip-path="url(#_clipPath_Vx9ltL0dkikMUNZOsSTYTBrMT7U6vfnQ)"><g id="Layer_3"><rect x="26.897" y="205.05" width="10" height="66.7" transform="matrix(1,0,0,1,0,0)" fill="rgb(249,109,0)"/><rect x="125.547" y="23.942" width="9.999" height="240.785" transform="matrix(0.545,0.838,-0.838,0.545,180.316,-43.809)" fill="rgb(249,109,0)"/><rect x="315.094" y="18.365" width="10" height="204.597" transform="matrix(0.408,-0.913,0.913,0.408,79.411,363.75)" fill="rgb(249,109,0)"/><rect x="405.605" y="157.902" width="10" height="22.7" transform="matrix(1,-0.005,0.005,1,-0.836,2.043)" fill="rgb(249,109,0)"/><rect x="310.544" y="123.583" width="9.999" height="231.985" transform="matrix(0.545,0.838,-0.838,0.545,344.236,-155.571)" fill="rgb(249,109,0)"/><rect x="144.524" y="188.998" width="10" height="161.198" transform="matrix(0.408,-0.913,0.913,0.408,-157.611,296.213)" fill="rgb(249,109,0)"/><rect x="126.522" y="200.601" width="10" height="224.697" transform="matrix(0.408,-0.913,0.913,0.408,-207.858,305.453)" fill="rgb(249,109,0)"/><rect x="316.9" y="188.474" width="9.999" height="220.786" transform="matrix(0.545,0.838,-0.838,0.545,396.821,-133.947)" fill="rgb(249,109,0)"/><g id="Layer_4"><path d=" M 402.6 238.4 C 402.6 232.605 407.305 227.9 413.1 227.9 C 418.895 227.9 423.6 232.605 423.6 238.4 C 423.6 244.195 418.895 248.9 413.1 248.9 C 407.305 248.9 402.6 244.195 402.6 238.4 Z " fill="rgb(249,109,0)"/></g></g></g></svg>